<svg width="121" height="79" viewBox="0 0 121 79" fill="none" xmlns="http://www.w3.org/2000/svg">
<path d="M24.9167 4.91758V22.1394C26.7381 21.9983 28.561 21.8508 30.3824 21.7002V4.47831C28.561 4.62896 26.7381 4.77644 24.9167 4.91758ZM38.9451 0.00158493C33.8827 0.44561 23.0345 0.891221 17.9705 1.24961C17.9705 2.59913 18.7803 4.74949 18.7803 6.09584C20.4177 5.97849 22.5751 5.77074 24.9167 5.52653C26.682 5.34099 28.553 5.13484 30.3824 4.93502C33.6331 4.57822 36.7604 4.23251 38.9531 4.0438C38.9531 2.27246 38.9531 2.15035 38.9451 0V0.00158493Z" fill="#02333C"/>
<path d="M42.8536 8.1177V17.753C43.02 17.8371 43.1897 17.9227 43.3561 18.0052C43.4169 18.2415 43.481 18.4746 43.5434 18.7109C43.6986 19.304 43.8555 19.8986 44.0123 20.4917C45.3984 20.3633 46.7828 20.2332 48.1689 20.1032V7.62451C46.3955 7.78944 44.6253 7.95594 42.8536 8.11928V8.1177ZM43.4073 16.0039C43.2105 16.0975 43.0248 16.1799 42.8536 16.2497C42.5303 16.3861 42.2534 16.4844 42.0213 16.5415C41.6692 16.6351 41.3251 16.6953 40.989 16.7254C40.6689 16.754 40.4352 16.7128 40.2848 16.6018C40.1327 16.4907 40.0575 16.3005 40.0575 16.0356V8.37301C38.2953 8.53159 36.5316 8.69176 34.7694 8.84558V18.1796C34.7694 20.5076 36.0114 21.5669 38.497 21.3417C39.4381 21.2593 40.3264 20.9865 41.1682 20.5266C41.9541 20.0969 42.7479 19.4927 43.5466 18.7093C43.601 18.6554 43.657 18.5999 43.7114 18.5459C43.6122 17.6991 43.5098 16.8491 43.4105 16.0023L43.4073 16.0039Z" fill="#02333C"/>
<path d="M96.2113 19.9969C97.4773 19.943 98.1111 20.5583 98.1111 21.8317V23.4048C98.1111 24.6814 97.4789 25.3411 96.2113 25.395C95.2878 25.4346 94.3643 25.4759 93.4408 25.5187C92.1732 25.5789 91.5426 24.9732 91.5426 23.6982V22.1251C91.5426 20.8501 92.1748 20.1809 93.4408 20.1206C94.3643 20.0778 95.2878 20.0366 96.2113 19.9969Z" fill="#02333C"/>
<path d="M13.0681 24.8304C13.0777 27.6215 13.0889 30.4141 13.0985 33.2051C13.0985 33.8188 13.1226 34.4293 13.1738 35.0383C13.2234 35.6472 13.2874 36.2673 13.3674 36.8937C13.2986 36.9 13.2298 36.9063 13.1578 36.9111C12.9177 36.2784 12.6632 35.6773 12.3943 35.1065C12.1238 34.5356 11.8486 34.0154 11.5701 33.5429C10.1312 31.4306 8.69235 29.3135 7.2519 27.1949C6.89338 26.6113 6.55408 26.1736 6.23397 25.8834C5.91387 25.5932 5.41291 25.4743 4.7359 25.5298C3.90524 25.5964 3.07617 25.6614 2.24871 25.728C0.749036 25.8454 0 26.643 0 28.1289V46.3942C1.99903 46.2436 3.99647 46.0834 5.9955 45.9201V37.2473C5.9955 36.6542 5.97149 36.0373 5.92027 35.3982C5.87066 34.7592 5.79544 34.1375 5.6962 33.5302C5.76503 33.5238 5.83385 33.5206 5.90587 33.5143C6.08513 34.1137 6.28999 34.7037 6.52046 35.2888C6.75094 35.8756 7.00542 36.4116 7.28391 36.9048C8.78198 39.1281 10.2833 41.3466 11.7813 43.5636C12.1206 44.1503 12.4551 44.5864 12.7848 44.8718C13.1146 45.1605 13.6187 45.2746 14.2989 45.2144C15.128 45.1414 15.9587 45.0685 16.7861 44.994C18.2842 44.8607 19.0348 44.0472 19.0332 42.5629V24.2976C17.047 24.4784 15.0576 24.656 13.0681 24.8289V24.8304Z" fill="#02333C"/>
<path d="M33.0777 39.0043C31.9861 39.1454 31.1443 39.2437 30.5457 39.3024C29.8046 39.3706 29.2445 39.3167 28.8667 39.1327C28.4874 38.9519 28.2313 38.6078 28.1033 38.1067C28.0873 38.0417 28.0713 37.9735 28.0569 37.9037C29.3053 37.7864 30.5553 37.669 31.8053 37.5501C34.0044 37.3424 35.5265 36.8904 36.3779 36.1974C37.2246 35.5028 37.6407 34.4641 37.6215 33.0797C37.6007 31.3417 37.0005 30.0809 35.8225 29.2991C34.6446 28.5205 32.6455 28.2652 29.827 28.53C27.7688 28.7219 26.1155 29.1358 24.8655 29.767C23.6171 30.3981 22.7112 31.3163 22.1542 32.5263C21.594 33.7362 21.3139 35.322 21.3139 37.2805C21.3139 38.9646 21.5892 40.3506 22.1382 41.4369C22.6872 42.5263 23.5915 43.2986 24.8511 43.7569C26.1107 44.2121 27.7784 44.3437 29.8575 44.1502C30.7569 44.063 31.6308 43.9425 32.4791 43.7839C33.3274 43.6253 34.1548 43.4081 34.9519 43.1337C35.7521 42.8594 36.5012 42.5105 37.2006 42.0887C37.0085 40.8581 36.8197 39.6307 36.6308 38.4001C35.3504 38.6602 34.1676 38.8616 33.0793 39.0059L33.0777 39.0043ZM28.0713 33.7886C28.1785 33.3128 28.385 32.9925 28.6859 32.8244C28.9836 32.6595 29.4253 32.5564 30.0047 32.5215C30.5857 32.4676 30.9922 32.4993 31.2323 32.6151C31.4724 32.7308 31.5924 33.0242 31.5924 33.4999C31.5924 33.9757 31.5028 34.3166 31.3219 34.4625C31.1427 34.61 30.7105 34.7131 30.0335 34.7765C29.3309 34.8431 28.6315 34.9081 27.9288 34.9716C27.9561 34.4768 28.0025 34.0819 28.0713 33.787V33.7886Z" fill="#02333C"/>
<path d="M51.2018 26.9411C51.021 26.9569 50.8401 26.9728 50.6577 26.9902C51.0274 27.956 51.3971 28.9218 51.7668 29.8891C52.6183 29.6671 53.4665 29.4451 54.318 29.2262C54.8654 29.0835 55.416 28.9424 55.9633 28.7981C56.0626 28.0274 56.1634 27.2567 56.2626 26.4844C54.5773 26.635 52.8888 26.7873 51.2018 26.9427V26.9411ZM54.318 29.2246C54.1932 28.8456 54.0235 28.5142 53.8042 28.2335C53.3049 27.5944 52.495 27.1726 51.3763 26.9696C51.3187 26.9601 51.261 26.949 51.2018 26.9411C50.1039 26.7619 48.6634 26.7555 46.8821 26.9236C45.0031 27.0965 43.4954 27.393 42.3542 27.8069C41.2147 28.2208 40.392 28.7949 39.8814 29.5259C39.3725 30.2554 39.118 31.1958 39.118 32.3455C39.118 33.4952 39.3661 34.3849 39.867 35.0208C40.2624 35.525 40.8561 35.8898 41.65 36.1197C41.8597 36.1816 42.0853 36.2323 42.3238 36.2751C42.9688 36.3877 43.7339 36.4401 44.6173 36.4321C45.2928 36.4274 46.0386 36.3877 46.85 36.3116C48.7466 36.1356 50.2623 35.8438 51.3923 35.4347C52.5206 35.0239 53.3305 34.4562 53.8187 33.7283C54.31 33.002 54.5533 32.0648 54.5533 30.9151C54.5533 30.2713 54.4733 29.7083 54.3164 29.2262L54.318 29.2246ZM48.3353 32.5199C48.0856 32.7198 47.5895 32.8561 46.8516 32.9259C46.1122 32.9941 45.6113 32.9497 45.3536 32.7975C45.0927 32.6436 44.963 32.3106 44.963 31.7952C44.963 31.2798 45.0927 30.9262 45.3536 30.7343C45.6129 30.5424 46.1106 30.4108 46.8516 30.3426C47.5911 30.2713 48.0856 30.3109 48.3353 30.4552C48.5834 30.6011 48.7098 30.931 48.7098 31.4464C48.7098 31.9617 48.5834 32.3201 48.3353 32.5215V32.5199ZM54.6157 38.527C53.8747 37.8308 52.6471 37.501 50.9265 37.539C49.1084 37.585 47.2902 37.6358 45.4704 37.6865C45.0127 37.6913 44.7118 37.5803 44.5725 37.3551C44.4317 37.1315 44.4125 36.8888 44.5117 36.6335C44.5405 36.5574 44.5773 36.4908 44.6173 36.4321C44.7118 36.2926 44.8366 36.2006 44.9919 36.1578C44.0236 36.0817 43.0536 36.0024 42.0853 35.9263C41.9333 35.9802 41.786 36.0436 41.65 36.1197C41.3011 36.3068 41.0002 36.5622 40.7505 36.8841C40.4032 37.3313 40.1823 37.8276 40.0911 38.37C40.0015 38.9139 40.0527 39.4388 40.2416 39.9447C40.3584 40.2555 40.536 40.5314 40.7793 40.7709C40.5649 40.8803 40.3728 40.9929 40.1967 41.1055C39.5357 41.5352 39.0828 41.9935 38.8331 42.4836C38.5834 42.972 38.4586 43.5223 38.4586 44.1376C38.4586 44.9098 38.5722 45.5537 38.8027 46.0659C39.0332 46.5797 39.4557 46.9682 40.0767 47.2362C40.6977 47.5042 41.5652 47.666 42.6839 47.7183C43.8043 47.7706 45.2607 47.7135 47.0613 47.547C49.0988 47.3567 50.7521 47.0824 52.0229 46.7208C53.2905 46.3577 54.2252 45.7947 54.8254 45.0272C55.424 44.2628 55.7249 43.175 55.7233 41.7699C55.7233 40.3062 55.3551 39.2247 54.6157 38.5286V38.527ZM49.6093 42.796C49.4493 42.9292 49.1596 43.0354 48.7386 43.1147C48.3209 43.194 47.7303 43.2654 46.9717 43.3367C46.2915 43.4017 45.7569 43.4255 45.368 43.4128C44.9775 43.3986 44.7086 43.3304 44.5581 43.2051C44.4093 43.0798 44.334 42.8879 44.334 42.6326C44.334 42.3155 44.4029 42.076 44.5437 41.9158C44.6189 41.827 44.723 41.7287 44.8574 41.6193C45.7425 41.5987 46.626 41.5812 47.5127 41.5654C48.052 41.5559 48.4954 41.5574 48.8459 41.5749C49.1964 41.5908 49.4509 41.6478 49.6109 41.743C49.7694 41.8366 49.851 42.011 49.8494 42.2695C49.8494 42.4867 49.7694 42.6628 49.6109 42.796H49.6093Z" fill="#02333C"/>
<path d="M72.8695 27.9354C72.3301 26.8285 71.4467 26.0674 70.2175 25.6582C68.9899 25.2491 67.3558 25.1254 65.3151 25.2935C63.2761 25.4616 61.6419 25.8517 60.416 26.4638C59.1868 27.0743 58.2969 27.9783 57.7479 29.1739C57.2005 30.3728 56.9252 31.9396 56.9236 33.8822C56.9236 35.782 57.1989 37.2727 57.7479 38.3526C58.2969 39.4341 59.1868 40.1715 60.416 40.5711C61.6435 40.9708 63.2777 41.0833 65.3151 40.9168C67.3542 40.7487 68.9899 40.3681 70.2175 39.7671C71.4451 39.1677 72.3301 38.2844 72.8695 37.1141C73.4089 35.9438 73.6794 34.4119 73.6794 32.5089C73.6778 30.5679 73.4089 29.0455 72.8695 27.937V27.9354ZM66.9492 35.273C66.8596 35.7836 66.6851 36.1404 66.4243 36.3402C66.1634 36.54 65.7953 36.6589 65.3151 36.697C64.8366 36.7367 64.4668 36.6796 64.2076 36.521C63.9467 36.3656 63.7658 36.0389 63.6666 35.541C63.5674 35.0446 63.5161 34.3024 63.5177 33.3129C63.5177 32.2837 63.5674 31.5083 63.6666 30.9834C63.769 30.4616 63.9483 30.0937 64.2076 29.8844C64.4668 29.6751 64.835 29.5498 65.3151 29.5117C65.7953 29.4737 66.1634 29.5355 66.4243 29.7036C66.6851 29.8685 66.8596 30.2079 66.9492 30.7138C67.0388 31.2244 67.0837 31.9903 67.0837 33.0211C67.0837 34.0519 67.0388 34.7623 66.9492 35.2745V35.273Z" fill="#02333C"/>
<path d="M89.1754 34.1234C88.556 34.2138 87.9351 34.2946 87.3173 34.3597C86.6979 34.4247 86.1345 34.477 85.6239 34.5167C85.115 34.5563 84.6892 34.588 84.3515 34.607C83.7129 34.6451 83.2072 34.5975 82.8374 34.4612C82.4677 34.3264 82.2084 34.0584 82.058 33.6508C81.9075 33.2432 81.8339 32.6549 81.8339 31.8842C81.8323 31.1119 81.9075 30.5173 82.058 30.1018C82.2068 29.6863 82.4677 29.3882 82.8374 29.2058C83.2072 29.025 83.7129 28.914 84.3515 28.8744C84.9885 28.8363 85.6687 28.7951 86.389 28.7538C87.1076 28.711 87.9463 28.6634 88.9066 28.6127C89.1162 27.3139 89.3259 26.0167 89.5356 24.718C88.9354 24.4531 88.268 24.2628 87.5269 24.1455C86.7875 24.0281 86.0465 23.9615 85.3102 23.9457C84.5692 23.9314 83.8906 23.9409 83.2712 23.9822C81.3122 24.1027 79.7453 24.4626 78.5673 25.0478C77.3861 25.633 76.5378 26.5163 76.0193 27.6898C75.5007 28.8664 75.2398 30.4142 75.2398 32.3346C75.2398 34.255 75.4943 35.7409 76.0049 36.8541C76.5138 37.9658 77.3525 38.7317 78.5225 39.1583C79.6908 39.5817 81.2545 39.7292 83.212 39.6087C84.3707 39.5357 85.5311 39.3724 86.6883 39.1187C87.847 38.8618 88.8665 38.4875 89.7452 37.9832C89.5564 36.6987 89.3659 35.411 89.1754 34.125V34.1234Z" fill="#02333C"/>
<path d="M91.6947 28.3811V38.7745C93.7833 38.6999 95.872 38.6349 97.9606 38.5794V28.186C95.872 28.2447 93.7833 28.3097 91.6947 28.3811Z" fill="#02333C"/>
<path d="M107.432 34.0805C107.172 33.9077 106.991 33.5699 106.891 33.0656C106.792 32.5629 106.743 31.8192 106.743 30.8281C106.743 30.3983 106.752 30.0145 106.77 29.6768C105.81 31.797 105.678 33.719 105.649 34.4326C105.422 33.9854 104.809 32.9292 103.545 32.2125C102.196 31.4433 100.862 31.4862 100.16 31.5845C100.209 33.221 100.48 34.5373 100.974 35.5316C101.522 36.6416 102.412 37.4298 103.641 37.8992C103.815 37.9658 104.003 38.0276 104.195 38.0831C104.241 38.091 104.289 38.099 104.331 38.1037C104.571 38.1339 104.758 37.9055 104.689 37.674C104.646 37.5281 104.595 37.3758 104.54 37.2141C104.377 36.7542 104.161 36.2483 103.871 35.7171C103.514 35.078 103.135 34.5531 102.788 34.1424C103.292 34.412 104.046 34.8909 104.763 35.6917C105.245 36.2277 105.577 36.7653 105.806 37.2141C105.909 37.4123 105.989 37.5931 106.054 37.7501C106.101 37.5883 106.154 37.4091 106.218 37.2141C106.48 36.4037 106.907 35.3286 107.604 34.1678C107.543 34.144 107.485 34.1138 107.432 34.079V34.0805Z" fill="#02333C"/>
<path d="M119.88 31.5051C119.715 31.8635 119.526 32.225 119.315 32.5834C118.082 34.6656 116.406 35.8597 114.897 36.9571C114.486 37.2314 113.939 37.5121 113.442 37.7199C112.781 37.9974 112.002 38.202 111.107 38.3383C110.645 38.4478 110.222 38.5255 109.856 38.5825C109.66 38.6127 109.471 38.5841 109.307 38.5159C108.867 38.3336 108.58 37.8499 108.694 37.3345C108.702 37.2965 108.711 37.2568 108.721 37.2172C108.841 36.697 109.003 36.1277 109.219 35.5235C109.827 33.8331 110.581 32.6818 111.115 31.8778C111.735 30.9437 112.652 29.7306 113.956 28.4794C113.06 28.8933 111.699 29.6323 110.309 30.8898C109.928 31.2323 109.544 31.6161 109.167 32.0427C108.534 32.7579 108.021 33.481 107.604 34.1724C106.907 35.3316 106.48 36.4052 106.218 37.2187C106.154 37.4138 106.101 37.593 106.054 37.7548C105.989 37.5978 105.909 37.417 105.806 37.2187C105.576 36.7668 105.243 36.2324 104.761 35.6948C104.043 34.8955 103.29 34.4166 102.786 34.1455C103.132 34.5562 103.513 35.0811 103.868 35.7218C104.158 36.2514 104.374 36.7573 104.537 37.2187C104.592 37.3789 104.643 37.5312 104.686 37.6786C104.756 37.9102 104.568 38.1385 104.327 38.1068C104.286 38.102 104.238 38.0957 104.191 38.0878C103.614 38.0037 102.727 37.7849 101.875 37.2187C101.397 36.9016 100.928 36.475 100.533 35.9041C99.225 34.0234 99.67 31.9824 99.7468 31.6621C99.8332 31.6431 99.9741 31.6145 100.155 31.5891C100.858 31.4908 102.191 31.4464 103.54 32.2139C104.804 32.9339 105.417 33.9869 105.646 34.4341C105.673 33.7205 105.805 31.8001 106.765 29.6798C107.14 28.8473 107.644 27.983 108.321 27.1521C108.513 26.911 108.722 26.6731 108.948 26.4384C110.321 25.0096 111.885 24.1295 113.41 23.603C116.08 22.6801 118.636 22.8307 119.878 22.9941C120.293 23.048 120.563 23.1035 120.638 23.1194C120.848 23.9931 121.647 27.6659 119.878 31.5051H119.88Z" fill="#31A936"/>
<path d="M113.412 23.6014C111.887 24.1278 110.323 25.008 108.95 26.4368C108.726 26.6715 108.516 26.9093 108.322 27.1504C107.647 27.9814 107.143 28.844 106.767 29.6782C105.806 31.7984 105.675 33.7188 105.648 34.4324C105.419 33.9852 104.808 32.9322 103.542 32.2123C102.192 31.4448 100.859 31.4876 100.157 31.5875C100.149 31.4035 100.145 31.2116 100.145 31.0182C100.145 29.0787 100.419 27.5246 100.97 26.3559C101.519 25.1903 102.408 24.334 103.636 23.7932C104.865 23.2541 106.498 22.9607 108.537 22.9195C110.558 22.8846 112.184 23.1145 113.409 23.6014H113.412Z" fill="#02333C"/>
<path d="M91.3233 12.9196L52.8519 15.3966L58.9163 8.10986C59.5949 7.29476 60.5776 6.79365 61.6339 6.72546L81.6403 5.43778C82.7142 5.36801 83.7689 5.75177 84.5516 6.49393L91.3233 12.9196Z" fill="#31A936"/>
<path d="M78.905 13.7188L65.2719 14.5958L67.4566 6.3496L75.728 5.81836L78.905 13.7188Z" fill="#024A52"/>
<path d="M60.9921 19.3959L57.6311 19.6116C55.1551 19.7702 53.0168 17.8831 52.8535 15.395L65.179 14.6021C65.3423 17.0902 63.4681 19.2358 60.9921 19.3959Z" fill="#0E7834"/>
<path d="M74.8125 18.5063L69.9566 18.8187C67.4806 18.9773 65.3423 17.0902 65.179 14.602L78.9978 13.7124C79.1611 16.2005 77.2869 18.3461 74.8109 18.5063H74.8125Z" fill="#02333C"/>
<path d="M87.138 17.7133L83.7769 17.929C81.301 18.0876 79.1627 16.2005 78.9994 13.7123L91.3249 12.9194C91.4882 15.4076 89.614 17.5532 87.138 17.7133Z" fill="#0E7834"/>
<path d="M111.461 52.2523L108.622 64.2601C108.274 65.7301 107.003 66.8116 105.483 66.9306L23.1321 73.4149L24.3581 68.556C24.6558 67.3825 24.3005 66.1218 23.4394 65.2702C22.7896 64.6248 21.8885 64.2553 20.9634 64.2553C20.6785 64.2553 20.3952 64.2902 20.1184 64.3584L10.645 66.707L12.0166 58.4291C12.2791 56.8544 13.5883 55.6571 15.192 55.527L107.757 47.9961C110.129 47.8042 112.003 49.9593 111.461 52.2539V52.2523Z" fill="#02333C"/>
<path d="M45.8145 59.3379C45.8801 58.951 45.9473 58.5609 46.0114 58.1724C44.2044 58.3373 42.3958 58.499 40.5888 58.656C40.0431 61.7484 39.5005 64.8407 38.9547 67.9298C40.7889 67.7728 42.6231 67.6111 44.4573 67.4461C44.5245 67.0576 44.5901 66.6675 44.6541 66.2806C43.2297 66.409 41.802 66.5375 40.3744 66.6596C40.5472 65.6796 40.7201 64.6995 40.8929 63.7195C42.1861 63.6069 43.4778 63.4912 44.771 63.3738C44.8398 62.9885 44.9118 62.6031 44.9806 62.2178C43.6858 62.3367 42.391 62.4525 41.0962 62.565C41.2659 61.6151 41.4323 60.6652 41.5988 59.7169C43.004 59.5917 44.4076 59.4664 45.8129 59.3379H45.8145Z" fill="#E9F2E1"/>
<path d="M54.5965 57.3714C54.1931 59.7073 53.7882 62.0432 53.3833 64.379C52.1781 62.197 50.9713 60.0117 49.7661 57.8265C49.4684 57.855 49.1724 57.8836 48.8763 57.909C48.3321 61.0029 47.7911 64.0968 47.2501 67.1907C47.6551 67.1542 48.06 67.1161 48.4681 67.0797C48.8731 64.7581 49.2812 62.4364 49.6877 60.1148C50.8801 62.2874 52.0757 64.4568 53.2681 66.6293C53.5802 66.5992 53.8906 66.5706 54.2027 66.5405C54.7405 63.4466 55.2783 60.3495 55.8145 57.2556C55.4095 57.2937 55.0046 57.3317 54.5965 57.3714Z" fill="#E9F2E1"/>
<path d="M63.5225 64.5139C63.9963 61.8085 64.4716 59.1015 64.9454 56.3977C64.5404 56.4358 64.1355 56.4722 63.7306 56.5103C63.1864 59.6042 62.6454 62.7013 62.1013 65.7952C63.8362 65.6319 65.568 65.4717 67.2997 65.3131C67.3717 64.9246 67.4405 64.5345 67.511 64.1459C66.1809 64.2696 64.8509 64.3902 63.5209 64.5154L63.5225 64.5139Z" fill="#E9F2E1"/>
<path d="M72.767 53.0834C72.3301 53.6939 71.8899 54.3076 71.4498 54.9214C71.8291 54.8865 72.2052 54.8548 72.583 54.823C73.1127 54.2014 73.6441 53.5829 74.1755 52.9629C73.7049 53.0009 73.2376 53.0438 72.767 53.0834ZM71.4722 55.8062C70.928 58.8986 70.3871 61.9909 69.8429 65.0832C70.2478 65.0467 70.6544 65.0103 71.0609 64.9738C71.6019 61.8815 72.146 58.7891 72.687 55.7C72.2821 55.7349 71.8771 55.7714 71.4722 55.8062Z" fill="#E9F2E1"/>
<path d="M81.7075 54.9594C81.3025 57.2874 80.8976 59.6169 80.4943 61.9465C79.2875 59.7422 78.0823 57.5411 76.8755 55.3432C76.581 55.3701 76.2833 55.3939 75.9856 55.4177C75.4447 58.5084 74.9021 61.5976 74.3611 64.6883C74.7661 64.6534 75.171 64.6201 75.5759 64.5852C75.9824 62.2684 76.3906 59.9484 76.7971 57.6331C77.9895 59.8167 79.1835 62.0035 80.3774 64.1951C80.6895 64.1713 81 64.146 81.3121 64.1238C81.8499 61.0378 82.3877 57.9518 82.9238 54.8674C82.5173 54.8976 82.1124 54.9293 81.7059 54.961L81.7075 54.9594Z" fill="#E9F2E1"/>
<path d="M91.4642 55.4432C91.5298 55.0562 91.5938 54.6693 91.661 54.2839C89.854 54.3886 88.0455 54.5059 86.2385 54.6312C85.6927 57.7109 85.1469 60.7953 84.6044 63.8765C86.4386 63.7449 88.2727 63.6228 90.1069 63.5102C90.1725 63.1232 90.2398 62.7363 90.3038 62.3509C88.8761 62.4382 87.4517 62.5301 86.024 62.63C86.1969 61.6532 86.3697 60.6763 86.5426 59.6995C87.8358 59.6107 89.1274 59.5266 90.419 59.4473C90.491 59.0636 90.5599 58.683 90.6303 58.2992C89.3355 58.3785 88.0407 58.4609 86.7458 58.5498C86.9123 57.603 87.0804 56.6579 87.2484 55.7112C88.6537 55.616 90.0573 55.5272 91.4625 55.4447L91.4642 55.4432Z" fill="#E9F2E1"/>
<path d="M98.5992 53.9286C98.1399 53.9492 97.6789 53.9682 97.2164 53.9904C95.5262 57.1129 93.8377 60.2449 92.1476 63.3863C92.5909 63.3625 93.0358 63.3356 93.4776 63.3118C93.8521 62.6093 94.2282 61.9052 94.6027 61.2043C95.9856 61.1313 97.37 61.0647 98.7513 61.006C98.8761 61.6832 99.0009 62.3619 99.1258 63.039C99.5147 63.0216 99.9036 63.0073 100.293 62.9899C99.7292 59.9689 99.1642 56.9464 98.5992 53.927V53.9286ZM95.2269 60.0355C96.056 58.4846 96.8867 56.9337 97.7141 55.3859C97.991 56.8829 98.2679 58.3815 98.5448 59.8801C97.4388 59.9261 96.3313 59.9784 95.2269 60.0355Z" fill="#E9F2E1"/>
<path d="M22.2662 66.2963C21.69 65.7238 20.837 65.4923 20.0431 65.6873L11.2163 67.8742C10.8066 67.9757 10.4305 68.1866 10.1312 68.4831C9.68945 68.9208 9.44457 69.5044 9.44457 70.1228C9.44457 70.7413 9.68945 71.3249 10.1312 71.7626C10.3409 71.9703 10.5857 72.1352 10.8578 72.251L12.3175 72.8758L11.2339 73.9494C10.7922 74.3871 10.5473 74.9675 10.5473 75.5875C10.5473 76.2076 10.7922 76.7911 11.2339 77.2272C11.6901 77.6808 12.2887 77.9076 12.8889 77.9076C13.4891 77.9076 14.0876 77.6824 14.5438 77.2272L15.6273 76.1568L16.2563 77.6031C16.3716 77.8711 16.5412 78.1137 16.7509 78.323C17.1926 78.7607 17.7816 79.0002 18.4058 79.0002C19.03 79.0002 19.619 78.7607 20.0607 78.323C20.36 78.0249 20.5745 77.6538 20.6753 77.2463L22.8824 68.5021C23.0825 67.7156 22.8456 66.8703 22.2662 66.2979V66.2963ZM21.3716 68.1263L19.1629 76.8704C19.1308 77.0052 19.0588 77.1289 18.958 77.2272C18.8139 77.3747 18.6155 77.4556 18.409 77.4556C18.2025 77.4556 18.0057 77.3747 17.8568 77.2272C17.7864 77.1591 17.7304 77.0782 17.692 76.9894L16.6052 74.4981C16.5028 74.2634 16.2915 74.0921 16.0371 74.0461C15.9874 74.0366 15.9378 74.0318 15.8898 74.0318C15.6849 74.0318 15.4849 74.1111 15.3376 74.257L13.4426 76.1346C13.1385 76.4359 12.644 76.4359 12.3399 76.1346C12.1926 75.9871 12.1126 75.7937 12.1126 75.5859C12.1126 75.3782 12.1942 75.1863 12.3399 75.042L14.2349 73.1644C14.4173 72.9836 14.4974 72.7251 14.451 72.473C14.3997 72.2209 14.2317 72.0084 13.9932 71.9084L11.4788 70.8333C11.3876 70.7952 11.3076 70.7381 11.2371 70.6699C11.0899 70.524 11.0067 70.329 11.0067 70.1228C11.0067 69.9167 11.0899 69.7232 11.2371 69.5757C11.3364 69.4774 11.4628 69.406 11.5989 69.3727L20.4241 67.1859C20.6929 67.1193 20.9698 67.1954 21.1667 67.3889C21.3619 67.5824 21.4388 67.8583 21.3716 68.1247V68.1263Z" fill="#02333C"/>
<path d="M21.3716 68.1261L19.1629 76.8703C19.1308 77.0051 19.0588 77.1288 18.958 77.2271C18.8139 77.3746 18.6155 77.4554 18.409 77.4554C18.2025 77.4554 18.0057 77.3746 17.8568 77.2271C17.7864 77.1589 17.7304 77.078 17.692 76.9892L16.6052 74.4979C16.5028 74.2632 16.2915 74.0919 16.0371 74.0459C15.9874 74.0364 15.9378 74.0317 15.8898 74.0317C15.685 74.0317 15.4849 74.111 15.3376 74.2569L13.4426 76.1345C13.1385 76.4358 12.644 76.4358 12.3399 76.1345C12.1926 75.987 12.1126 75.7935 12.1126 75.5858C12.1126 75.378 12.1942 75.1861 12.3399 75.0418L14.2349 73.1642C14.4173 72.9835 14.4974 72.725 14.451 72.4728C14.3997 72.2207 14.2317 72.0082 13.9932 71.9083L11.4788 70.8331C11.3876 70.795 11.3076 70.738 11.2371 70.6698C11.0899 70.5239 11.0067 70.3288 11.0067 70.1227C11.0067 69.9165 11.0899 69.723 11.2371 69.5756C11.3364 69.4772 11.4628 69.4059 11.5989 69.3726L20.4241 67.1858C20.6929 67.1192 20.9698 67.1953 21.1667 67.3887C21.362 67.5822 21.4388 67.8581 21.3716 68.1245V68.1261Z" fill="#31A936"/>
<path d="M30.1471 68.7668H27.1558C26.6628 68.7668 26.2627 68.3704 26.2627 67.8819C26.2627 67.3935 26.6628 66.9971 27.1558 66.9971H30.1471C30.6401 66.9971 31.0402 67.3935 31.0402 67.8819C31.0402 68.3704 30.6401 68.7668 30.1471 68.7668Z" fill="#E9F2E1"/>
<path d="M16.9093 63.6574C16.6805 63.6574 16.4532 63.5718 16.2787 63.3989L14.699 61.8337C14.3501 61.488 14.3501 60.9282 14.699 60.5825C15.0479 60.2368 15.6129 60.2368 15.9618 60.5825L17.5415 62.1477C17.8904 62.4934 17.8904 63.0532 17.5415 63.3989C17.3671 63.5718 17.1382 63.6574 16.9109 63.6574H16.9093Z" fill="#E9F2E1"/>
<path d="M21.4372 62.8138C20.9442 62.8138 20.5441 62.4173 20.5441 61.9289V58.7176C20.5441 58.2292 20.9442 57.8328 21.4372 57.8328C21.9301 57.8328 22.3303 58.2292 22.3303 58.7176V61.9289C22.3303 62.4173 21.9301 62.8138 21.4372 62.8138Z" fill="#E9F2E1"/>
<path d="M25.6049 64.4122C25.376 64.4122 25.1487 64.3266 24.9743 64.1538C24.6254 63.8081 24.6254 63.2483 24.9743 62.9026L27.3222 60.5825C27.6711 60.2368 28.2361 60.2368 28.585 60.5825C28.9339 60.9282 28.9339 61.488 28.585 61.8337L26.2371 64.1538C26.0626 64.3266 25.8338 64.4122 25.6065 64.4122H25.6049Z" fill="#E9F2E1"/>
</svg>
